<svg xmlns="http://www.w3.org/2000/svg" version="1.1" xmlns:xlink="http://www.w3.org/1999/xlink" xmlns:svgjs="http://svgjs.dev/svgjs" viewBox="0 0 800 800"><defs><linearGradient x1="50%" y1="0%" x2="50%" y2="100%" id="ssscribble-grad"><stop stop-color="hsl(37, 91%, 55%)" stop-opacity="1" offset="0%"></stop><stop stop-color="hsl(212, 72%, 59%)" stop-opacity="1" offset="100%"></stop></linearGradient></defs><g fill="none" stroke-width="1.5" stroke="url(#ssscribble-grad)" stroke-linecap="round"><path d="M1092.24 212.48C1002.49 245.34 858.22 269.17 720.77 286.96 639.62 308.25 638.8 330.54 706.31 361.34 817.25 405.59 922.87 468.82 989.08 555.21 1004.51 654.98 961.97 768.16 878.58 878.55 768.2 961.95 655.02 1004.51 555.24 989.09 468.85 922.89 405.61 817.27 361.35 706.33 330.54 638.8 308.24 639.6 286.95 720.74 269.15 858.17 245.32 1002.45 212.46 1092.21 179.6 1088.33 139.27 992.21 95.09 848.7 35.67 671.36 -17.32 737.5 22.97 885.1 72.1 959.07 138.11 982.1 205.42 954.95 245.74 886.29 249.32 791.66 199.67 690.61 99.25 586.61 -35.83 496.69 -170.86 424.41 -262.46 361.8 -280.35 313.4 -211.87 274.25 -87.11 238.8 50.49 205.89 140.24 173.03 136.32 140.17 46.85 108.92 -83.98 82.39 -207.98 59.57 -270.54 48.18 -253.31 53.84 -165.59 69.17 -36.06 104.97 95.72 158.32 234.88 232.46 232.46 234.88 158.32 95.72 104.97 -36.06 69.17 -165.59 53.84 -253.31 48.18 -270.54 59.57 -207.98 82.39 -83.98 108.92 46.85 140.17 136.32 173.03 140.24 205.89 50.49 238.8 -87.11 274.25 -211.88 313.4 -280.35 361.79 -262.46 424.4 -170.86 496.67 -35.84 586.59 99.25 690.59 199.67 791.64 249.32 886.28 245.73 954.94 205.41 982.1 138.09 959.08 72.09 885.13 22.96 737.52 -17.33 671.35 35.67 848.67 95.1 992.19 139.28 1088.32 179.62 1092.24 212.48Q1092.24 212.48 1092.24 212.48" opacity="0.32"></path><path d="M1058.24 174.01C977.37 204.52 845.94 236.12 713.17 270.8 620.54 308.63 593.63 355.19 630.56 414.53 717.69 482.04 818.6 565.39 902.09 661.83 954.94 756.74 959.53 848.63 921.23 921.21 848.66 959.52 756.78 954.94 661.87 902.1 565.43 818.62 482.08 717.71 414.56 630.56 355.22 593.63 308.65 620.52 270.82 713.13 236.14 845.89 204.54 977.33 174.02 1058.21 143.51 1057.92 115.53 976.16 92.67 847.11 72.95 713.33 64.01 617.02 70.48 580.66 85.11 608.69 118.21 681.97 167.62 771.42 239.54 888.36 274.08 888.93 169.07 790.46 53.81 703.41 -74.46 616.62 -183.96 538.52 -243.25 462.15 -233.71 398.48 -152.86 347.42 -31.87 298.4 93.38 258.9 174.24 228.38 173.92 197.87 98.32 177.79 -18.95 169.26 -140.94 162.77 -219.87 170.92 -233.85 194.41 -183.44 219.63 -82.79 256.17 38.42 296.2 158.53 321.29 251.92 330.19 309.27 309.27 330.19 251.92 321.29 158.53 296.2 38.42 256.17 -82.79 219.63 -183.44 194.41 -233.85 170.92 -219.87 162.77 -140.94 169.26 -18.95 177.79 98.32 197.87 173.92 228.38 174.24 258.89 93.37 298.4 -31.87 347.41 -152.86 398.47 -233.71 462.13 -243.25 538.5 -183.96 616.6 -74.46 703.39 53.81 790.45 169.06 888.92 274.07 888.38 239.53 771.44 167.61 682 118.19 608.71 85.09 580.67 70.46 617.01 63.99 713.31 72.93 847.08 92.65 976.13 115.52 1057.92 143.5 1058.24 174.01Q1058.24 174.01 1058.24 174.01" opacity="0.67"></path><path d="M1024.24 240.05C951.94 268.21 833.58 305.36 707.89 351.68 608.51 399.6 560.16 459.09 567.62 529.94 625.7 602.07 709.94 682.3 794.96 763.71 889.55 860.29 860.31 889.56 763.74 794.98 682.34 709.95 602.11 625.71 529.98 567.62 459.13 560.15 399.64 608.49 351.72 707.85 305.4 833.54 268.25 951.9 240.09 1024.21 211.92 1027.03 194.07 958.86 187.27 845.23 182.07 718.54 190.32 613.78 212.36 553.9 235.67 547.97 269.52 588.69 307.51 657.02 333.44 741.05 347.45 813.65 337.65 861.41 296.14 884.92 221.74 876.79 118.32 844.15 3.97 792.3 -105.52 729.76 -184.24 665.86 -212.34 597.23 -180.02 535.24 -91.52 483.56 23.29 431.87 135.94 391.26 208.24 363.09 211.03 334.92 148.55 320.52 45.78 319.1 -114.38 323.03 -150.24 371.38 -19.58 387.91 93.76 377.15 199.76 344.85 284.43 284.43 344.85 199.76 377.15 93.76 387.91 -19.58 371.38 -150.24 323.03 -114.38 319.1 45.78 320.52 148.55 334.92 211.03 363.09 208.24 391.26 135.94 431.86 23.29 483.55 -91.53 535.23 -180.03 597.21 -212.35 665.84 -184.24 729.74 -105.51 792.29 3.98 844.14 118.33 876.8 221.75 884.94 296.14 861.43 337.65 813.68 347.44 741.08 333.42 657.05 307.48 588.71 269.48 547.98 235.63 553.9 212.32 613.77 190.27 718.52 182.02 845.21 187.22 958.85 194.03 1027.03 211.88 1024.24 240.05Q1024.24 240.05 1024.24 240.05" opacity="0.54"></path><path d="M990.24 380.04C926.18 405.86 820.99 443.17 704.41 490.58 602.83 537.84 538.45 594.33 519.78 656.75 547.16 715.04 606.5 772.68 679.4 821.93 757.29 855.25 818.48 868.47 854.71 854.71 868.47 818.5 855.26 757.31 821.94 679.41 772.71 606.51 715.07 547.17 656.79 519.77 594.38 538.44 537.89 602.8 490.64 704.37 443.22 820.94 405.92 926.14 380.1 990.21 354.28 995.63 341.17 940.2 339.89 842.47 338.45 726.34 347.96 619.52 365.64 543.23 379.17 508.19 394.29 515.42 403.73 554.7 397.25 619.24 373.39 688.21 325.79 747.69 255.73 797.34 163.92 823.97 59.14 828.27 -40.63 816.18 -123.12 788.03 -169.43 750.91 -169.68 706.15 -120 660.53 -28.38 619.1 78.22 576.17 178.18 540.68 242.24 514.86 247.63 489.04 197.42 474.11 109.65 468.34 3.48 461.08 -88.63 459.72 -145.98 459.74 -162.09 452.13 -131.69 437.76 -65.53 410.06 25.9 365.97 125.48 302.28 218.8 218.79 302.29 125.48 365.97 25.9 410.06 -65.53 437.76 -131.7 452.12 -162.09 459.73 -145.99 459.71 -88.63 461.06 3.48 468.31 109.64 474.08 197.41 489 247.62 514.82 242.23 540.64 178.17 576.14 78.21 619.06 -28.39 660.5 -120.01 706.12 -169.69 750.89 -169.44 788.03 -123.12 816.19 -40.63 828.28 59.15 823.99 163.93 797.36 255.74 747.72 325.8 688.24 373.39 619.28 397.24 554.72 403.71 515.44 394.26 508.2 379.14 543.23 365.6 619.51 347.92 726.32 338.4 842.45 339.84 940.19 341.12 995.63 354.23 990.24 380.04Q990.24 380.04 990.24 380.04" opacity="0.47"></path><path d="M956.22 529.28C900.04 552.75 807.91 584.57 702.12 622.73 602.54 659.58 527.95 699.97 488.23 739.65 486.74 772.95 517.36 798.9 568.42 811.61 634.78 810.61 698.52 790.57 749.89 749.89 790.57 698.52 810.61 634.78 811.61 568.42 798.9 517.36 772.95 486.74 739.65 488.23 699.97 527.95 659.58 602.54 622.73 702.12 584.57 807.91 552.75 900.04 529.28 956.22 505.8 963.73 491.79 920.04 485.69 838.24 478.27 735.36 475.96 632.28 474.96 547.18 467.59 490.28 454.89 467.55 431.42 475.47 394.24 511.2 340.5 561.35 269.06 614.32 186.93 669.84 95.35 713.54 4.55 741.82 -96.77 762.32 -85.19 727.57 35.93 690.75 132.67 663.39 220.04 636.99 276.22 613.52 283.73 590.05 244.8 570.62 172.06 553.7 78.23 534.89 -11.48 514.93 -79.38 490.17 -119.06 458.58 -120.75 416.69 -88.39 361.63 -28.21 297.18 49.75 219.77 133.49 133.49 219.77 49.75 297.18 -28.21 361.63 -88.39 416.69 -120.75 458.58 -119.06 490.17 -79.38 514.93 -11.48 534.89 78.23 553.7 172.06 570.62 244.8 590.05 283.73 613.52 276.22 636.99 220.04 663.39 132.66 690.74 35.93 727.57 -85.2 762.33 -96.78 741.84 4.55 713.56 95.35 669.86 186.92 614.34 269.06 561.37 340.49 511.22 394.23 475.48 431.41 467.55 454.88 490.28 467.58 547.16 474.96 632.25 475.96 735.33 478.27 838.22 485.68 920.02 491.78 963.73 505.79 956.24 529.27Q956.22 529.28 956.22 529.28" opacity="0.35"></path><path d="M922.38 618.6C873.91 639.73 794.7 662.8 700.96 686.2 607.02 708.05 527.88 727.26 473.2 740.53 447.31 748.29 449.6 745.67 473.99 729.84 518.04 706.05 569.21 668.45 618.74 619.13 668.08 569.58 705.73 518.34 729.59 474.18 745.5 449.65 748.21 447.19 740.53 472.9 727.33 527.43 708.19 606.46 686.38 700.35 663.02 794.13 639.97 873.46 618.85 922.11 597.72 931.2 579.52 898.12 563.04 831.84 545.01 744.02 525.73 649.58 502.31 563.05 473.39 492.91 435.89 447.2 387.42 426.81 331 431.23 263.03 453.94 186 486.99 108.78 530.29 32.56 571.88 -33.48 606.4 -79.86 639.13 -101.1 660.65 -90.7 670.79 -51.5 677.15 15.61 674.09 101.39 663.48 186.98 651.48 261.91 634.44 310.38 613.31 319.25 592.19 290.25 567.98 231.97 540.15 152.21 510.92 69.79 475.56 -1.18 432.59 -55.71 385.84 -82.31 329.54 -80.53 264.25 -53.95 197.17 -6.06 125.25 54.77 54.26 125.82 -6.47 197.76 -54.23 264.83 -80.66 330.1 -82.27 386.35 -55.52 433.06 -0.87 475.97 70.16 511.28 152.57 540.48 232.25 568.28 290.38 592.46 319.2 613.58 310.13 634.71 261.49 651.77 186.44 663.81 100.81 674.46 15.07 677.57 -51.93 671.27 -90.99 661.18 -101.23 639.71 -79.82 607 -33.29 572.5 32.85 530.88 109.13 487.52 186.37 454.37 263.38 431.52 331.31 426.94 387.67 447.16 436.05 492.71 473.46 562.72 502.31 649.18 525.65 743.63 544.87 831.54 562.86 897.97 579.3 931.25 597.48 922.38 618.6Q922.38 618.6 922.38 618.6" opacity="0.74"></path><path d="M888.21 606.98C846.7 625.76 779.74 640.32 698.76 649.99 613.62 658.61 535.55 660.43 472.91 654.09 429.69 644.84 408.38 625.84 406.84 597.11 424.23 566.59 453.4 528.95 487.91 487.89 528.97 453.39 566.62 424.23 597.14 406.84 625.87 408.38 644.87 429.71 654.12 472.94 660.45 535.58 658.62 613.66 650.01 698.81 640.33 779.78 625.77 846.73 606.99 888.24 588.21 898.37 566.11 874.66 540.37 823.04 513.57 751.2 481.24 669.13 442.37 587.71 400.57 513.16 350.65 453.56 292.98 412.08 233.52 389.07 168.91 383.27 103.24 390.4 44.12 410.21 -7.3 435.02 -44.25 459.83 -62.26 488.29 -57.79 511.45 -28.33 527.02 20.53 542.18 87.92 548.83 165.82 546.7 239.54 544.08 302.7 533.44 344.21 514.66 354.36 495.88 334.47 469.86 290.11 437.07 225.52 403.77 154.13 362.97 86.47 315.27 25.69 267.15 -17.07 213.07 -39.01 155.67 -42.47 101.92 -26.01 50.15 5.72 5.74 50.12 -26 101.89 -42.46 155.63 -39.01 213.03 -17.07 267.11 25.68 315.22 86.46 362.93 154.11 403.73 225.5 437.02 290.1 469.81 334.47 495.84 354.37 514.61 344.24 533.4 302.73 544.04 239.58 546.67 165.86 548.79 87.95 542.15 20.56 527 -28.31 511.42 -57.77 488.27 -62.26 459.81 -44.25 435.01 -7.31 410.19 44.1 390.4 103.22 383.26 168.88 389.06 233.49 412.07 292.95 453.56 350.62 513.15 400.54 587.7 442.34 669.12 481.21 751.19 513.55 823.04 540.35 874.65 566.08 898.36 588.19 888.23 606.97Q888.21 606.98 888.21 606.98" opacity="0.47"></path><path d="M854.23 499.51C764.48 532.37 620.47 535.11 485.74 508.99 380.33 457.01 457.01 380.33 508.99 485.74 535.11 620.47 532.37 764.48 499.51 854.23 466.65 850.31 406.78 753.9 323.71 616.85 239.66 480.6 138.62 385.97 44.61 341.31 -13.84 339.78 -19.65 359.56 47.14 374.75 157.79 397.02 288.48 395.71 378.23 362.85 374.31 329.99 291.22 268.68 178.26 189.46 36.21 81.8 81.8 36.21 189.46 178.26 268.68 291.22 329.99 374.31 362.85 378.23 395.71 288.48 397.02 157.79 374.75 47.14 359.56 -19.65 339.78 -13.84 341.31 44.61 385.97 138.62 480.6 239.66 616.85 323.71 753.9 406.78 850.31 466.65 854.23 499.51Q854.23 499.51 854.23 499.51" opacity="0.18"></path><path d="M820.22 346.07C747.91 374.24 629.76 375.8 508.22 357.47 406.05 344.53 343.64 325.31 318.65 318.65 325.31 343.64 344.53 406.05 357.47 508.22 375.8 629.76 374.24 747.91 346.07 820.22 317.9 823.04 265.8 754.28 198.66 646.21 136.91 524 73.72 418.71 30.15 345.79 18.22 300.71 50.76 280.25 132.28 269.03 233.18 267.12 339.91 256.37 412.22 228.2 415.04 200.03 357.69 157.12 270.28 110.22 168.7 72.63 93.29 49.13 57.29 57.29 49.12 93.29 72.63 168.69 110.22 270.26 157.11 357.67 200.03 415.03 228.19 412.24 256.37 339.94 267.12 233.2 269.04 132.29 280.26 50.76 300.7 18.22 345.78 30.15 418.69 73.72 523.97 136.9 646.19 198.65 754.26 265.8 823.03 317.9 820.24 346.06Q820.22 346.07 820.22 346.07" opacity="0.91"></path><path d="M786.22 217.52C730.05 240.99 637.98 251.12 536.49 254.07 438.42 263.54 360.95 278.3 309.32 309.32 278.3 360.95 263.54 438.42 254.07 536.49 251.12 637.98 240.99 730.05 217.52 786.22 194.05 793.73 159.46 749.18 121.73 671.32 90.52 573.98 68.65 477.39 68.91 397.1 89.78 328.84 142.35 280.14 223.21 246.45 307.49 219.53 390.05 196.5 446.22 173.03 453.73 149.56 418.69 127.86 358.04 114.11 277.9 107.12 206.21 119.19 156.69 156.68 119.19 206.2 107.12 277.89 114.11 358.02 127.86 418.68 149.55 453.73 173.02 446.24 196.5 390.07 219.52 307.52 246.44 223.23 280.12 142.35 328.82 89.78 397.08 68.9 477.37 68.65 573.95 90.51 671.29 121.72 749.16 159.45 793.73 194.04 786.24 217.51Q786.22 217.52 786.22 217.52" opacity="0.33"></path><path d="M752.29 173.31C710.85 192.09 643.85 211.66 566.44 234.41 484.53 261.45 409.95 298.87 349.92 349.69 299.05 409.69 261.6 484.25 234.52 566.16 211.74 643.59 192.15 710.66 173.37 752.17 154.59 762.32 138.41 737.61 128.64 688.04 123.18 620.69 131.33 546.5 157.58 477.39 193.01 409.45 247.67 353.05 315.81 310.62 379.46 270.99 438.85 241.55 480.29 222.78 490.36 204 473.18 197.65 437.32 204.74 383.69 214.63 329.39 241.73 284.89 285.06 241.57 329.55 214.49 383.83 204.61 437.42 197.54 473.22 203.9 490.32 222.68 480.17 241.46 438.66 270.88 379.2 310.49 315.53 352.91 247.39 409.3 192.75 477.22 157.36 546.34 131.15 620.55 123.04 687.94 128.53 737.57 138.33 762.36 154.53 752.29 173.31Q752.29 173.31 752.29 173.31" opacity="0.36"></path><path d="M718.22 234.01C645.91 262.17 528.16 327.91 424.71 424.71 327.91 528.16 262.17 645.91 234.01 718.22 205.84 721.03 220.58 650.99 280.46 562.21 346.99 460.79 441.91 382.72 514.22 354.55 517.03 326.38 469.82 353.45 417.95 417.95 353.45 469.82 326.38 517.03 354.55 514.22 382.72 441.91 460.79 346.99 562.21 280.46 650.99 220.58 721.03 205.84 718.22 234.01Q718.22 234.01 718.22 234.01" opacity="0.10"></path><path d="M684.24 371.4C575.86 408.96 409.01 575.85 371.46 684.21 333.9 671.67 439.86 544.84 548.24 507.28 535.68 469.73 469.69 535.67 507.25 548.21 544.8 439.85 671.68 333.85 684.24 371.4Q684.24 371.4 684.24 371.4" opacity="0.79"></path></g></svg>